<svg width="580" height="400" xmlns="http://www.w3.org/2000/svg">
  <g>
    <title>background</title>
    <rect fill="transparent" id="canvas_background" height="402" width="582"
      y="-1" x="-1" />
    <g display="none" overflow="visible" y="0" x="0" height="100%" width="100%"
      id="canvasGrid">
      <rect fill="url(#gridpattern)" stroke-width="0" y="0" x="0" height="100%"
        width="100%" />
    </g>
  </g>
  <g>
    <title>Layer 1</title>
    <path
      d="m106.5,87.453125c0,1 0.229752,2.026749 0,3c-0.513741,2.176254 -0.540497,4.053505 -1,6c-0.513741,2.176254 -0.839821,4.012909 -1,5c-0.506538,3.121445 -0.310738,6.080254 -1,9c-0.513741,2.176254 -1.496223,2.907784 -2,7c-0.122185,0.992508 -1,4 -2,7c-1,3 -1,4 -1,5c0,3 0,4 0,7c0,2 0,4 0,5c0,3 0,5 0,6c0,2 -0.493462,3.878555 -1,7c-0.160179,0.987091 0,3 0,5c0,3 0,4 0,5c0,1 0.229752,2.026749 0,3c-0.513741,2.176254 -1.540497,5.053497 -2,7c-0.513741,2.176254 -2,4 -2,7c0,2 -0.839821,4.012909 -1,5c-0.506538,3.121445 -2,6 -2,7c0,2 -0.770248,5.026749 -1,6c-0.513741,2.176254 -1,3 -1,4c0,1 0,4 0,6c0,2 0.733101,6.044952 0,12c-0.503777,4.092209 -1,6 -1,8c0,2 0,4 0,7c0,2 -0.679634,5.025818 -1,7c-0.506538,3.121445 -0.633453,5.022476 -1,8c-0.503777,4.092209 -2,8 -2,10c0,1 -0.458801,2.693451 -1,4c-1.148048,2.771637 0.689262,5.080261 0,8c-0.513741,2.176239 -1.839821,4.012909 -2,5c-0.506538,3.121429 -1,4 -2,6c-1,2 -1,4 -1,5c0,2 -2.824432,4.0979 -4,6c-0.525734,0.850647 -1,2 -2,3c-1,1 -2.707108,2.292908 -2,3c0.707108,0.707092 3.026749,0.229767 4,0c2.176254,-0.513733 6.412071,-0.968536 10,-3c1.230652,-0.696777 2,-2 4,-2c1,0 3,-1 5,-1c5,0 10,0 12,0c3,0 4,0 5,0c1,0 3,0 7,0c4,0 8.310005,0.337494 11,2c1.203003,0.7435 2.053497,0.540497 4,1c2.176254,0.513733 8.963837,2.115875 12,3c3.958679,1.152771 9.693436,2.458801 11,3c0.923874,0.38269 2,0 3,0c1,0 2,0 5,0c1,0 2.076126,0.38269 3,0c1.306564,-0.541199 2,-1 3,-1l0,-1"
      id="svg_1" stroke-width="12.5" stroke="#000" fill="none" />
    <path
      d="m281.5,152.453125c-1,0 -2.0979,0.824432 -4,2c-4.253265,2.628662 -8.863251,5.146805 -11,7c-3.777283,3.276016 -6.113281,3.835068 -12,8c-4.081696,2.887863 -9.770615,7.259354 -12,9c-4.595993,3.58844 -10,6 -11,7c-2,2 -5,5 -7,7c-2,2 -2.714127,4.21167 -5,7c-1.793198,2.187347 -2.130646,3.128723 -3,6c-1.04483,3.450851 -2,5 -3,9c-1,4 -1.389084,5.03746 -2,10c-0.503769,4.092209 -2.11586,5.963837 -3,9c-1.152771,3.958679 -1.75563,7.014984 -2,9c-0.503769,4.092209 -1.540497,8.053497 -2,10c-1.027481,4.352509 -2.496231,6.907776 -3,11c-0.122177,0.992493 0,3 0,6c0,2 0,5 0,7c0,1 0,4 0,6c0,2 0,4 0,6c0,2 -0.707108,5.292908 0,6c0.707108,0.707092 1.415283,0.188751 2,1c1.849014,2.565369 5,2 6,3c2,2 3.907791,4.496216 8,5c0.992508,0.122192 5.304489,0.469269 9,2c2.613129,1.082397 7,2 12,2c1,0 3.878555,-1.493469 7,-2c0.987091,-0.160187 1.474274,-1.149353 2,-2c2.351135,-3.80423 6.404007,-3.41156 11,-7c4.458771,-3.481293 7,-6 9,-8c3,-3 3.92807,-4.611053 6,-7c1.465088,-1.68924 3.346191,-4.705475 5,-7c2.614899,-3.627991 5.234253,-7.834595 8,-12c2.28067,-3.434906 2.972504,-4.647491 4,-9c0.229767,-0.973251 1.115875,-2.963837 2,-6c1.152771,-3.958679 0.881348,-5.025208 2,-10c0.904572,-4.022659 1.881348,-5.025208 3,-10c0.904572,-4.022659 2.620209,-8.6689 4,-12c1.951324,-4.710876 2.493469,-8.878555 3,-12c0.160187,-0.987091 1.789856,-7.07843 3,-10c0.855713,-2.065857 1,-5 1,-6c0,-1 0.540497,-4.053497 1,-6c0.513733,-2.176254 1,-5 1,-6c0,-3 0,-4 0,-5c0,-1 0,-2 0,-5c0,-2 0.707092,-4.292892 0,-5c-0.707092,-0.707108 -2,-1 -3,-1c-1,0 -2.152252,-1.234634 -4,-2c-1.306549,-0.541199 -2.292908,-1.292892 -3,-2c-0.707092,-0.707108 -1.852722,-1.173096 -3,-2c-1.813995,-1.307449 -4,-1 -5,-1c-2,0 -4,-1 -5,-1c-1,0 -2,0 -3,0c-1,0 -2,0 -4,0l-1,0"
      id="svg_2" stroke-width="12.5" stroke="#000" fill="none" />
    <path
      d="m406.5,151.453125c-1,0 -2.012909,-0.160187 -3,0c-3.121429,0.506546 -5.21167,2.714127 -8,5c-1.093658,0.896591 -4.186005,2.692551 -6,4c-1.147278,0.826904 -2,2 -3,3c-1,1 -4.298706,1.821075 -6,5c-0.471863,0.881668 -3,3 -6,6c-2,2 -3.647339,2.040329 -7,5c-2.703003,2.386169 -4,5 -9,10c-2,2 -3.337494,5.310013 -5,8c-2.230499,3.609009 -6.144287,7.934143 -7,10c-1.210144,2.92157 -3.144287,5.934143 -4,8c-1.210144,2.92157 -1.755646,5.014984 -2,7c-0.503784,4.092209 -2,7 -2,11c0,2 0,6 0,10c0,2 0,7 0,11c0,4 0,6 0,10c0,4 0,8 0,10c0,2 0,4 0,5c0,1 0,2 0,4c0,1 0,3 0,4c0,1 0,2 0,3c0,1 1,1 1,2c0,1 1.292908,1.292908 2,2c0.707092,0.707092 0.693451,1.458801 2,2c0.923889,0.38269 1.693451,0.458801 3,1c0.923889,0.38269 3,0 6,0c3,0 6.878571,0.493469 10,1c0.987091,0.160187 2.051331,0.316223 3,0c4.743408,-1.581146 6.228851,-3.729614 11,-8c4.215088,-3.772675 5.692535,-6.186005 7,-8c2.480713,-3.441803 4.486267,-4.823761 5,-7c0.459503,-1.946503 3.371338,-5.746735 6,-10c1.175568,-1.9021 3.346191,-3.705475 5,-6c2.614899,-3.627991 4.496216,-6.907791 5,-11c0.244354,-1.985016 1.486267,-5.823746 2,-8c0.459503,-1.946503 1.458801,-6.693436 2,-8c1.148041,-2.771637 1.496216,-3.907791 2,-8c0.122192,-0.992508 0.679626,-4.025818 1,-6c0.506531,-3.121445 2.458801,-6.693436 3,-8c1.530731,-3.695511 0,-6 0,-7c0,-4 0,-8 0,-9c0,-2 0,-5 0,-9c0,-1 0,-4 0,-7c0,-1 0,-3 0,-5c0,-2 0,-3 0,-5c0,-1 0,-2 0,-4c0,-1 0.765381,-2.152237 0,-4c-0.541199,-1.306564 -0.234619,-2.152237 -1,-4c-0.541199,-1.306564 -1,0 -1,3c0,2 -1,5 -1,6c0,3 0.662506,4.310013 -1,7c-0.7435,1.203003 -0.337494,2.310013 -2,5c-0.7435,1.203003 -0.540497,3.053497 -1,5c-0.513733,2.176254 -0.839813,5.012909 -1,6c-0.506531,3.121445 -1.755646,6.014984 -2,8c-0.503784,4.092209 -2.486267,5.823746 -3,8c-0.229767,0.973251 0.320374,4.025818 0,6c-0.506531,3.121445 -2.292908,4.292892 -3,5c-0.707092,0.707108 0,3 0,4c0,1 -0.458801,1.693436 -1,3c-0.38269,0.923874 0.160187,2.012909 0,3c-0.506531,3.121445 -1,5 -1,6c0,1 -1,3 -1,4c0,2 -1.486267,2.823746 -2,5c-0.229767,0.973251 0,2 0,3c0,1 0,2 0,3c0,1 0,2 0,3c0,2 0.9021,3.824432 -1,5c-0.850647,0.525726 -1,1 -1,2c0,1 -0.458801,1.693451 -1,3c-0.38269,0.923889 0.38269,2.076111 0,3c-0.541199,1.306549 -0.770233,2.026764 -1,3c-0.513733,2.176239 -1.458801,3.693451 -2,5c-0.38269,0.923889 0.765381,3.152252 0,5c-0.541199,1.306549 -0.61731,2.076111 -1,3c-0.541199,1.306549 -0.61731,3.076111 -1,4c-0.541199,1.306549 -0.540497,2.053497 -1,4c-0.513733,2.176239 -1.458801,2.693451 -2,4c-0.38269,0.923889 -0.486267,2.823761 -1,5c-0.459503,1.946503 -0.839813,4.012909 -1,5c-0.506531,3.121429 -2,4 -2,5c0,2 -1,4 -1,6c0,2 -2,3 -2,5c0,2 -0.770233,4.026764 -1,5c-0.513733,2.176239 -1.31073,3.080261 -2,6c-0.513733,2.176239 -0.61731,3.076111 -1,4c-0.541199,1.306549 -0.770233,3.026764 -1,4c-0.513733,2.176239 -1,4 -1,5c0,2 -1,3 -1,4c0,1 -0.770233,3.026764 -1,4c-0.513733,2.176239 -0.692535,4.186005 -2,6c-0.826904,1.147278 -1.458801,2.693451 -2,4c-0.38269,0.923889 -0.486267,1.823761 -1,4c-0.229767,0.973236 0,2 0,4c0,1 0.38269,2.076111 0,3c-0.541199,1.306549 -1.486267,1.823761 -2,4c-0.229767,0.973236 0,2 -1,3c-1,1 -1.458801,1.693451 -2,3c-0.38269,0.923889 0,2 0,4c0,1 -1,1 -1,2c0,1 -1,2 -1,3c0,1 0.306549,2.458801 -1,3c-1.847748,0.765381 -3.076111,-0.38269 -4,0c-1.306549,0.541199 -2,1 -4,1c-4,0 -5.879974,-0.481689 -13,-2c-6.915588,-1.474701 -12.824432,-1.0979 -14,-3c-2.102936,-3.402618 -1,-4 -1,-7c0,-3 -0.579559,-7.085815 0,-9c1.04483,-3.450836 1.337494,-5.309998 3,-8c1.487,-2.406006 4.103394,-4.906342 5,-6c2.285889,-2.78833 6.087433,-5.793945 11,-8c2.039825,-0.916016 5.222717,-2.723999 9,-6c2.136749,-1.85318 8.232971,-4.589722 12,-7c5.393585,-3.450989 7.410919,-5.692383 12,-9c3.627991,-2.614899 4.881531,-4.190277 8,-6c1.93399,-1.122345 2.173096,-1.852722 3,-3c1.307465,-1.813995 2.877655,-4.06601 4,-6c1.809723,-3.118469 3.710205,-4.042908 4,-5c1.04483,-3.450836 3.337494,-6.309998 5,-9c1.487,-2.406006 3.41156,-6.404022 7,-11c0.870331,-1.114685 4,-4 5,-7c1,-3 1,-4 1,-5l0,-1"
      id="svg_3" stroke-width="12.5" stroke="#000" fill="none" />
    <path
      d="m501.5,142.453125c0,2 -1.346191,2.70546 -3,5c-1.307465,1.813995 -3.371277,8.592178 -10,15c-4.60376,4.450333 -6.190277,6.881516 -8,10c-3.367035,5.801987 -4.925781,8.042938 -9,15c-2.946655,5.031631 -7.254333,11.82132 -10,16c-4.427246,6.73793 -7.144287,11.934143 -8,14c-2.420288,5.843124 -3.346191,9.70546 -5,12c-2.614899,3.627991 -4.224213,6.902832 -5,9c-1.430481,3.867004 -3.496216,8.907791 -4,13c-0.122192,0.992508 -1.115875,4.963837 -2,8c-1.152771,3.958679 -1.188354,5.943665 -2,9c-1.308746,4.928192 -1.144287,6.934143 -2,9c-1.210144,2.92157 -1,5 -1,6c0,1 0,3 0,4c0,2 0,4 0,5c0,2 0.292908,3.292908 1,4c1.414215,1.414215 1,3 1,5c0,2 1,5 2,6c1,1 1.31076,2.534912 3,4c2.388947,2.07193 3.471252,4.458771 10,6c2.919739,0.68927 9.946716,2.498749 17,3c0.997498,0.070892 8.060822,2.640717 15,4c4.046204,0.792603 5,1 8,1c1,0 2.132019,0.24469 6,-2c3.118469,-1.809723 5,-3 7,-5c1,-1 4.2565,-3.796997 5,-5c1.662506,-2.690002 2.319153,-4.119446 3,-6c2.658813,-7.34375 6.41156,-11.404022 10,-16c1.740662,-2.22937 2.714111,-6.21167 5,-9c1.793213,-2.187347 1.968567,-6.412079 4,-10c0.696777,-1.230652 1.847229,-6.041321 3,-10c0.884155,-3.036163 2.955139,-8.549149 4,-12c1.159119,-3.828369 1.497559,-5.925797 2,-11c0.295593,-2.985397 0,-7 0,-9c0,-4 0,-9 0,-12c0,-5 0,-12 0,-19c0,-3 0,-9 0,-15c0,-2 0,-7 0,-8c0,-2 0.38269,-3.076126 0,-4c-0.541199,-1.306564 0.051453,-2.298691 -1,-4c-1.175598,-1.902115 -2.610657,-2.159271 -4,-5c-1.584106,-3.238922 -3,-4 -4,-5c-2,-2 -4,-4 -5,-5c-3,-3 -3.934143,-5.144287 -6,-6c-2.92157,-1.210144 -5,-3 -6,-5c-1,-2 -0.823761,-3.486252 -3,-4c-2.919739,-0.689255 -4,0 -5,0l-1,0l-1,0l-1,0"
      id="svg_4" stroke-width="12.5" stroke="#000" fill="none" />
  </g>
</svg>